<?xml version="1.0" encoding="utf-8"?>
<!-- Generator: Adobe Illustrator 21.0.2, SVG Export Plug-In . SVG Version: 6.00 Build 0)  -->
<svg version="1.1" id="Calque_1" xmlns="http://www.w3.org/2000/svg" xmlns:xlink="http://www.w3.org/1999/xlink" x="0px" y="0px"
	 viewBox="0 0 595.3 841.9" style="enable-background:new 0 0 595.3 841.9;" xml:space="preserve">
<style type="text/css">
	.st0{fill:#020203;}
	.st1{fill:#1E1E1C;}
	.st2{fill:none;stroke:#1E1E1C;stroke-width:0.25;stroke-miterlimit:10;}
	.st3{fill:none;}
	.st4{fill:#FFFFFF;}
</style>
<g>
	<path class="st0" d="M177,329.9l-0.5-0.2l0-0.1l13.2-32.7l3.6,9L193,306l-3.2-7.8l-7.1,17.4h13.7v0.5h-13.9L177,329.9z
		 M182.4,315.9h13.9H182.4z M189.8,297.6l-5.5,13.7L189.8,297.6z M191.6,302l1.5,3.7L191.6,302z"/>
	<polygon class="st1" points="194.6,294.3 193.7,294.3 193.7,294.3 192.7,294.3 192.7,294.3 190.5,294.3 191.1,295.7 198.7,313.1 
		199.3,314.4 199.2,314.4 200.9,318.3 201,318.3 205.6,328.9 209.8,328.9 	"/>
</g>
<g>
	<path class="st0" d="M283.1,323.5L283.1,323.5c-11.2-0.7-11.3-11-11.3-11.1c-0.1-2.6,0.8-5.1,0.9-5.2l0-0.1l0.5,0.2l0,0.1
		c0,0-0.9,2.5-0.9,5c0,0.1,0,9.9,10.8,10.6l0.2,0c3.9-0.2,6.9-1.8,8.8-4.6l0.1-0.1l0.4,0.3l-0.1,0.1c-2,3-5.1,4.6-9.2,4.8H283.1z
		 M283.3,323.2L283.3,323.2c1.3-0.1,2.4-0.3,3.4-0.6C285.7,323,284.6,323.2,283.3,323.2L283.3,323.2z M272.1,312.1
		c0,0.1,0,0.2,0,0.3c0,0.1,0,8.7,8.7,10.6c-8.7-1.8-8.7-10.5-8.7-10.6C272.1,312.3,272.1,312.2,272.1,312.1z M292.3,318.6
		c-0.5,0.7-1.1,1.4-1.8,2C291.2,320,291.8,319.4,292.3,318.6L292.3,318.6z"/>
	<path class="st1" d="M272.5,321.4l0.8-0.9c-2.1-2.4-3.4-5.5-3.4-8.9c0-7.4,6-13.5,13.4-13.5c4.2,0,8.1,2,10.6,5.2l2.8-2.7
		c-3.2-3.9-8-6.4-13.4-6.4c-9.5,0-17.3,7.8-17.3,17.3c0,4.5,1.7,8.5,4.5,11.6L272.5,321.4z"/>
</g>
<g>
	<path class="st0" d="M325.3,323.9l-0.1,0H317l0-23.1h0.5v22.6h7.7c0,0,0,0,0.1,0c0.8,0,4.4-0.1,7.3-1.9l0.9-0.5c5.4-3.3,5-8,5-8.1
		l0-0.1l0.5-0.1l0,0.1c0,0.1,0.4,5.1-5.3,8.6l-0.9,0.5C329.8,323.8,326,323.9,325.3,323.9z M325.2,323.6l0.1,0c0.5,0,2.2,0,4.2-0.6
		C327.5,323.6,325.7,323.6,325.2,323.6L325.2,323.6z M317.2,323.6h0.1H317.2z M333.3,321.4l-0.6,0.4c-0.4,0.2-0.7,0.4-1.1,0.6
		c0.4-0.2,0.7-0.4,1.1-0.6L333.3,321.4z"/>
	<path class="st1" d="M320.7,298.2L320.7,298.2l7.2,0c7.4,0,13.5,6,13.5,13.5c0,3.7-1.5,7.1-4,9.5l2.9,2.5c3-3.1,4.8-7.3,4.8-12
		c0-9.5-7.7-17.3-17.3-17.3h-11.1v3.9H320.7z"/>
</g>
<g>
	<path class="st0" d="M401.4,328.8h-0.5v-12.1h11.5v0.5h-11V328.8z M401.2,328.5v-11.6V328.5z"/>
	<polygon class="st1" points="424.8,298.1 424.8,294.3 401,294.3 401,313.5 404.9,313.5 404.9,313.5 419.6,313.5 419.6,309.7 
		404.9,309.7 404.9,298.1 	"/>
</g>
<g>
	<path class="st0" d="M273.3,440.8h-0.5v-12.2h11.5v0.5h-11V440.8z M273,440.5v-11.7h11h-11V440.5z"/>
	<path class="st1" d="M287.1,406.3h-14.2v19.2h3.8v0h10.4c5.3,0,9.6-4.3,9.6-9.6C296.7,410.6,292.4,406.3,287.1,406.3z M287.1,421.7
		h-10.4v-11.5h10.4c3.1,0,5.7,2.6,5.7,5.8C292.8,419.1,290.2,421.7,287.1,421.7z"/>
</g>
<g>
	<path class="st0" d="M179.5,376.5c-11.2-0.7-11.3-11-11.3-11.1c-0.1-2.6,0.8-5.1,0.9-5.2l0-0.1l0.5,0.2l0,0.1c0,0-0.9,2.5-0.9,5
		c0,0.1,0,9.9,10.8,10.6l0.2,0c3.9-0.2,6.9-1.8,8.8-4.6c0,0,0.7-1,1.2-1.8h-10.9v-0.5h11.8l-0.1,0.2c-0.5,0.9-1.5,2.4-1.5,2.4
		c-2,3-5.1,4.6-9.2,4.8H179.5z M183.9,375.4c-1.2,0.5-2.6,0.8-4.2,0.9h-0.1h0.1C181.2,376.2,182.6,375.9,183.9,375.4z M168.4,365.1
		c0,0.1,0,0.2,0,0.3c0,0.1,0,8.7,8.7,10.6c-8.7-1.8-8.7-10.5-8.7-10.6C168.4,365.3,168.4,365.2,168.4,365.1z M183.9,375.4
		C183.9,375.4,183.9,375.4,183.9,375.4C183.9,375.4,183.9,375.4,183.9,375.4z M188.7,371.5C188.7,371.5,188.7,371.5,188.7,371.5
		c-0.2,0.2-0.3,0.5-0.5,0.7C188.4,372,188.5,371.7,188.7,371.5C188.7,371.5,188.7,371.5,188.7,371.5z M179,369.3h11.1H179z"/>
	<path class="st1" d="M169.7,373.8c-2.3-2.4-3.7-5.6-3.7-9.2c0-7.4,6-13.5,13.4-13.5c6.4,0,12,4.6,13.2,10.9l0.2,1.2h3.9l-0.3-1.8
		c-1.5-8.2-8.6-14.2-17-14.2c-9.5,0-17.3,7.8-17.3,17.3c0,4.5,1.8,8.7,4.7,11.8L169.7,373.8z"/>
	<g>
		<path class="st2" d="M178.8,371.5"/>
	</g>
</g>
<g>
	<path class="st0" d="M213.3,381.7h-0.5l0-13.9h13.3v0.5h-12.8V381.7z M213.1,381.5V368h12.8h-12.8L213.1,381.5z"/>
	<polygon class="st1" points="237,347.3 237,362.7 216.8,362.7 216.8,347.3 213,347.3 213,366.5 216.8,366.5 216.8,366.5 237,366.5 
		237,381.9 240.9,381.9 240.9,347.3 	"/>
</g>
<g>
	<path class="st0" d="M384.7,328.9h-23v-12.3h9.7v0.5h-9.2v11.3h22.5V328.9z M361.9,328.6h22.5H361.9z"/>
	<polygon class="st1" points="365.5,313.5 365.5,313.5 379.4,313.5 379.4,309.7 365.5,309.7 365.5,298.1 384.6,298.1 384.6,294.3 
		361.7,294.3 361.7,313.5 	"/>
</g>
<g>
	<rect x="188.7" y="487" class="st0" width="0.5" height="14.1"/>
	<polygon class="st1" points="177.8,466.3 177.8,470.1 188.8,470.1 188.8,485.3 192.6,485.3 192.6,470.1 203.6,470.1 203.6,466.3 	
		"/>
</g>
<g>
	<path class="st0" d="M288.4,382.2l0-0.5l0.1,0C302,381,302,368.3,302,368.2v-6.8h0.5v6.8c0,0.1,0,13.3-14,14.1L288.4,382.2z
		 M288.6,382L288.6,382c4.1-0.2,6.9-1.6,9-3.3C295.6,380.4,292.7,381.7,288.6,382z M302.2,368.3L302.2,368.3L302.2,368.3z
		 M302.2,361.6v6.5c0,0,0,0.1,0,0.2c0-0.1,0-0.2,0-0.2V361.6z"/>
	<path class="st1" d="M308.1,365.9c0-0.4,0.1-0.8,0.1-1.3v-17.3h-3.8v17.3c0,0.4,0,0.9-0.1,1.3H308.1z"/>
</g>
<g>
	<path class="st0" d="M324.9,382.1h-0.5v-18.9l12.6,12.6l-0.4,0.4l-11.7-11.7V382.1z M324.7,381.9v-18.1V381.9z"/>
	<polygon class="st1" points="346.1,381.9 351.5,381.9 332.7,363 348.4,347.3 342.9,347.3 328.5,361.7 328.5,347.3 324.6,347.3 
		324.6,360.5 326.3,362.1 326.3,362.1 337.2,373 	"/>
</g>
<g>
	<path class="st0" d="M389.1,382h-23.4v-12.1h0.5v11.6h22.9V382z M365.9,381.8h22.9H365.9z"/>
	<rect x="365.9" y="347.3" class="st1" width="3.8" height="20"/>
</g>
<g>
	<polygon class="st0" points="404.6,381.9 404.1,381.9 404.1,350.9 413.2,369.9 412.7,370.2 412.6,370 404.6,353.2 	"/>
	<polygon class="st0" points="435.3,347.3 422,375.8 408.7,347.3 408.7,347.3 408.7,347.3 405.4,347.3 404.4,347.3 405.4,349.5 
		405.4,349.5 406.9,352.7 406.9,352.7 406.9,352.7 409.2,357.7 409.2,357.6 410.6,360.6 420.5,381.8 423.4,381.8 434.8,357.6 
		434.8,381.8 438.6,381.8 438.6,347.3 	"/>
	<line class="st3" x1="404.4" y1="381.8" x2="404.4" y2="381.8"/>
</g>
<g>
	<path class="st0" d="M239.1,435.2c-11.2-0.7-11.3-11-11.3-11.1c-0.1-2.6,0.8-5.1,0.9-5.2l0-0.1l0.5,0.2l0,0.1c0,0-0.9,2.5-0.9,5
		c0,0.1,0,9.9,10.8,10.6l0.2,0c3.3-0.2,6-1.4,7.9-3.5c0.2-0.2,0.4-0.5,0.6-0.7c0-0.1,0.1-0.1,0.1-0.2c0.1-0.1,0.2-0.2,0.2-0.3
		l0.1-0.1l0,0c1.8-2.6,2.4-5.3,1.9-8.2l0-0.1l0.5-0.1l0,0.1c0.6,3.2-0.2,6.3-2.4,9.1c-0.2,0.2-0.4,0.5-0.6,0.7l0,0c0,0,0,0,0,0
		c0,0,0,0,0,0l-0.1,0.1l0,0c-2,2.1-4.7,3.3-8.1,3.5H239.1z M240.3,434.9c-0.3,0-0.7,0.1-1,0.1h-0.1h0.1
		C239.6,435,240,434.9,240.3,434.9z M228,423.9c0,0.1,0,0.2,0,0.3c0,0.1,0,8.7,8.8,10.6c-8.7-1.8-8.8-10.5-8.8-10.6
		C228,424,228,424,228,423.9z M247.4,431.4L247.4,431.4c0.2-0.2,0.4-0.5,0.6-0.7c0,0,0,0,0-0.1c0,0,0,0-0.1,0.1
		C247.7,431,247.6,431.2,247.4,431.4z"/>
	<path class="st1" d="M226.1,426.7c-0.2-1-0.4-2-0.4-3.1c0-7.4,6-13.5,13.4-13.5c6.4,0,11.7,4.5,13.1,10.4l3.7-1
		c-1.8-7.6-8.6-13.3-16.8-13.3c-9.5,0-17.3,7.8-17.3,17.3c0,1.6,0.2,3.1,0.6,4.6L226.1,426.7z"/>
</g>
<g>
	<path class="st0" d="M339.7,439.5l-5.3-5.3c-3.3,1.4-6.7,1-10.2-0.9l-0.2-0.1c-9.1-6.7-3.6-15.3-3.5-15.4c1.3-2.3,3.5-3.9,3.5-3.9
		l0.1-0.1l0.3,0.4l-0.1,0.1c-0.1,0.1-2.1,1.6-3.4,3.8c-0.1,0.1-5.3,8.4,3.4,14.8l0.2,0.1c3.4,1.9,6.7,2.2,9.9,0.8l0.1,0l0,0.1l0,0
		l5.5,5.5L339.7,439.5z M329.8,434.7c0.3,0,0.6,0,0.9,0C330.4,434.7,330.1,434.7,329.8,434.7z M320.7,417.9c-0.5,0.7-5.1,8.8,3.5,15
		l0.2,0.1c0.3,0.2,0.6,0.3,0.9,0.4c-0.3-0.1-0.6-0.3-0.9-0.4l-0.2-0.1C315.6,426.7,320.2,418.6,320.7,417.9z M323.8,414.3
		c-0.5,0.5-1.6,1.4-2.5,2.6C322.2,415.7,323.2,414.7,323.8,414.3z"/>
	<path class="st4" d="M334,428.1"/>
	<path class="st1" d="M317.3,421c1.2-6.2,6.7-10.8,13.2-10.8c7.4,0,13.4,6,13.4,13.5c0,2.9-0.9,5.7-2.7,8l-5.3-5.2l-2.8,2.6l4.5,4.5
		l0.2,0.1l7.8,7.8l2.7-2.7l-4.4-4.4c2.4-3,3.8-6.8,3.8-10.8c0-9.5-7.7-17.3-17.3-17.3c-8.5,0-15.6,6.2-17,14.4L317.3,421z"/>
</g>
<g>
	<path class="st0" d="M364.4,440.8h-0.5v-16l0.4,0.3l12.2,10.5l-0.3,0.4l-0.1-0.1l-11.7-10.1V440.8z M364.2,440.5v-15.2V440.5z"/>
	<path class="st1" d="M372.6,425.5h5.2c5.3,0,9.6-4.3,9.6-9.6c0-5.3-4.3-9.6-9.6-9.6h-13.7v16.8l3.8,3.4v0l16.2,14.4h5.7
		L372.6,425.5z M368,410.1h9.9c3.2,0,5.7,2.6,5.7,5.8c0,3.2-2.6,5.7-5.7,5.7H368V410.1z"/>
</g>
<g>
	<path class="st0" d="M414.9,419.6l-0.1-0.1c-3.2-1.4-5.2-4-5.2-6.6c0-1.7,0.9-2.9,1.3-3.3c2.2-3,6.9-4.2,10.7-2.9
		c3.8,1.3,5.4,4.7,5.8,5.7l0,0.1l-0.5,0.2l0-0.1c-0.4-1-1.9-4.2-5.5-5.4c-3.6-1.3-8-0.1-10.1,2.7c-0.3,0.5-1.1,1.5-1.2,3
		c-0.1,2.4,1.9,4.8,4.9,6.1l0.1,0.1L414.9,419.6z M411.1,416.5L411.1,416.5L411.1,416.5z M409.8,412.9c0,0,0,0.1,0,0.1
		c0,1.2,0.4,2.4,1.3,3.5c-0.8-1.1-1.3-2.3-1.3-3.5C409.8,412.9,409.8,412.9,409.8,412.9z M418.4,406.5c1.1,0,2.1,0.2,3.1,0.5
		c1.8,0.6,3.1,1.8,4,2.9c-0.9-1.1-2.2-2.2-4-2.9c-3.6-1.3-8-0.1-10.2,2.6C412.9,407.6,415.6,406.5,418.4,406.5z"/>
	<path d="M413.7,440.7c-0.7-0.2-1.5-0.3-2.2-0.5c-3.7-1.2-6.5-3.3-7.4-7.3c-0.2-0.8-0.1-1.6-0.2-2.5c1,0,1.9,0,2.8,0
		c0,0.1,0.1,0.2,0.1,0.4c0.1,3.6,2.1,6.1,5.8,7c2.7,0.6,5.6,0.7,8.3,0c2.7-0.7,4.7-2.2,5.5-4.9c0.6-2,0-3.8-1.4-5.4
		c-1.8-2-4.1-2.8-6.8-2.8c-2.2,0-4.3,0-6.4-0.7c-3.6-1.1-6.6-4.9-6.7-8.2c0-0.2,0-0.4,0-0.7c0.7,0,1.4,0,2,0c0.2,0,0.4,0.3,0.5,0.5
		c1,4.2,4.1,6.5,8.4,6.6c1.7,0,3.4,0,5.1,0.3c4.2,0.9,7.2,3.3,8.1,7.6c0,0.1,0.1,0.2,0.1,0.3c0,0.8,0,1.5,0,2.3c0,0-0.1,0.1-0.1,0.1
		c-0.9,4.2-3.8,6.4-7.8,7.6c-0.6,0.2-1.3,0.3-2,0.4C417.5,440.7,415.6,440.7,413.7,440.7z"/>
</g>
<g>
	<path class="st4" d="M265.4,490.7"/>
</g>
<g>
	<path class="st0" d="M317,496.2l-0.3-0.6l-12-29.4l0.5-0.2l0,0.1l11.7,28.6l4.9-16.8l0.5,0.1l0,0.1l-5.1,17.4L317,496.2z
		 M305,466.4l11.9,29.1v0l-0.1-0.3L305,466.4z M322,478.2l-5.1,17.2l0,0L322,478.2L322,478.2z"/>
	<polygon class="st0" points="346.2,466.3 339.1,492.4 331.3,466.3 330.4,466.3 330.4,466.3 329.1,466.3 329.1,466.3 328.2,466.3 
		320.8,491.9 320.8,491.9 319.6,496.1 318.2,500.7 319.1,500.7 322,500.7 322.3,500.7 329.8,474.6 337.6,500.7 340.8,500.7 
		350.1,466.3 	"/>
</g>
<g>
	<path class="st0" d="M366.8,501.1l-0.4-0.3l0.1-0.1l10.2-13.9L366.1,473l0.4-0.3l10.7,13.9l0,0.2L366.8,501.1z M366.7,500.7
		L366.7,500.7l10.2-13.9l0,0L366.7,500.7z M366.4,473.1l1,1.3L366.4,473.1z"/>
	<polygon class="st1" points="382.1,483.6 394.8,466.3 390,466.3 379.7,480.3 369.5,466.3 364.7,466.3 377.3,483.6 377.3,483.6 
		379.7,486.9 379.7,486.8 390,500.9 394.8,500.9 	"/>
</g>
<g>
	<polygon class="st0" points="422.7,501 422.2,501 422.2,490.5 411.7,475.6 412.1,475.3 412.2,475.4 422.6,490.3 	"/>
	<polygon class="st0" points="426.8,482.3 438.5,466.3 433.7,466.3 423.4,480.3 413.1,466.3 408.4,466.3 418.8,480.6 418.8,480.6 
		419.8,481.9 421.4,484.1 421.5,484.1 423.4,486.8 425.4,484.1 425.4,484.1 426.7,482.5 426.8,482.3 	"/>
</g>
<g>
	<path class="st0" d="M317.2,559.6h-27.3l0.3-0.4l15.6-21.5l0.4,0.3l-0.1,0.1l-15.3,21h26.3V559.6z M290.4,559.4h26.6H290.4z"/>
	<polygon class="st0" points="322.2,526.3 320.1,526.3 320.1,526.3 294.5,526.3 294.5,526.3 291.4,526.3 291.4,530.1 294.5,530.1 
		294.5,530.1 314.7,530.1 304,544.9 308.7,544.9 320.1,529.1 320.1,529 	"/>
</g>
<g>
	<path class="st0" d="M225.4,324.2h-0.2v-25h0.5v24.5h14.1c0.2,0,4.6-0.3,4.7-5.8l0-0.1l0.5,0l0,0.1c-0.1,6.1-5.1,6.3-5.2,6.3H225.4
		z M225.4,323.9h14.3c0,0,0,0,0,0c0,0,0,0,0,0H225.4z"/>
	<g>
		<path class="st4" d="M244.8,318.6"/>
	</g>
	<path class="st1" d="M229.5,298.1L229.5,298.1l8.9,0c3.1,0,5.7,2.6,5.7,5.8c0,3.2-2.6,5.7-5.7,5.7h-9l0,0l0,3.8H240
		c3.2,0,5.7,2.6,5.7,5.8c0,1.2-0.4,2.4-1.1,3.3l3.4,1.9c1-1.5,1.5-3.3,1.5-5.2c0-3.5-1.9-6.6-4.8-8.3c1.9-1.8,3.1-4.3,3.1-7
		c0-5.3-4.3-9.6-9.6-9.6h-12.9v3.8H229.5z"/>
</g>
<g>
	<rect x="263.2" y="368" class="st0" width="0.5" height="14.1"/>
	<rect x="263.1" y="347.3" class="st0" width="4" height="19"/>
</g>
<g>
	<path class="st0" d="M176.1,440.9h-0.5v-30.6l0.5,0.6l11.1,15.3l-0.4,0.3l-0.1-0.1l-10.6-14.6V440.9z M175.8,440.6v-29.6V440.6z"/>
	<polygon class="st1" points="187.1,421.4 202.2,440.8 205.4,440.8 205.4,406.3 201.5,406.3 201.5,433.6 180.2,406.3 180.1,406.3 
		177.1,406.3 175.5,406.3 179.4,411.3 	"/>
</g>
<g>
	<path class="st0" d="M232.3,499.6c-2.3,0-5.3-1.4-7.1-3.4c-2.7-3-3.3-8.1-3.3-8.1l0-22h0.5v22c0,0.2,0.5,5,3.1,7.8
		c1.7,1.8,4.5,3.2,6.7,3.2c2.3,0,6.4-1.7,7.9-4.3c1.5-2.8,1.8-5.5,1.8-5.6l0-0.1l0.5,0l0,0.1c0,0-0.3,2.9-1.9,5.8
		C239,497.8,234.7,499.6,232.3,499.6z M225,495.7c0.1,0.1,0.2,0.3,0.3,0.4c1.7,1.9,4.6,3.3,6.9,3.3c-2.3,0-5.2-1.4-6.9-3.3
		C225.3,495.9,225.1,495.8,225,495.7z M232.3,499.3C232.3,499.3,232.3,499.3,232.3,499.3C232.3,499.3,232.3,499.3,232.3,499.3z
		 M232.4,499.3C232.4,499.3,232.4,499.3,232.4,499.3C232.4,499.3,232.4,499.3,232.4,499.3z M232.4,499.3
		C232.4,499.3,232.4,499.3,232.4,499.3C232.4,499.3,232.4,499.3,232.4,499.3z M240,495.4C240,495.4,240,495.4,240,495.4
		C240,495.4,240,495.4,240,495.4z M242.2,489.3c-0.1,0.6-0.4,3.1-1.8,5.5c-0.1,0.2-0.2,0.3-0.3,0.5c0.1-0.2,0.2-0.3,0.3-0.5
		C241.7,492.4,242.1,489.9,242.2,489.3L242.2,489.3z M222.2,466.4l0,21.7c0,0,0,0,0,0c0,0,0,0,0,0L222.2,466.4z"/>
	<path d="M247.7,490.8c-0.3,1.2-0.4,2.4-0.8,3.5c-1.8,5.3-5.3,8.7-10.9,9.6c-0.4,0.1-0.8,0.1-1.3,0.1c0-1,0-1.8,0-2.7
		c5.8-1,9.1-4.2,10-9.7c0.1-0.6,0.1-1.1,0.1-1.7c0-7.2,0-14.4,0-21.5c0-0.4,0-0.8,0-1.4c1,0,1.9,0,2.8,0
		C247.7,474.9,247.7,482.9,247.7,490.8z"/>
</g>
<g>
	<path class="st0" d="M275.1,496.2l-0.2-0.6l-12-29.4l0.5-0.2l0,0.1l11.7,28.7l6.6-16.4l0.5,0.2l0,0.1L275.1,496.2z M263.2,466.4
		l11.9,29.1l6.7-16.7l0,0l-6.7,16.7L263.2,466.4z"/>
	<polygon class="st0" points="276.5,500.7 277.2,500.7 280.2,500.7 294.1,466.3 290,466.3 279.1,493.2 279.2,493.2 277.8,496.8 
		277.8,496.8 276.8,499.6 276.8,499.6 276.4,500.7 	"/>
</g>
</svg>
