<?xml version="1.0" encoding="UTF-8" standalone="no"?>
<!-- Created with Inkscape (http://www.inkscape.org/) -->
<svg
   xmlns:svg="http://www.w3.org/2000/svg"
   xmlns="http://www.w3.org/2000/svg"
   version="1.0"
   width="420"
   height="324.3009"
   id="svg2">
  <defs
     id="defs4" />
  <g
     transform="translate(-133.77372,-94.799574)"
     id="layer1">
    <path
       d="M 164.02621,139.52066 L 164.02621,124.61363 C 163.73389,120.03437 162.12627,116.42941 159.20335,113.79873 C 158.42388,113.11674 157.59571,112.53215 156.71885,112.04496 C 154.86763,111.07068 153.01643,110.58352 151.16525,110.58349 C 146.78082,110.58352 143.22457,112.43472 140.49649,116.13708 C 137.47611,120.61896 136.64795,126.07512 138.01199,132.50558 C 138.88887,136.59772 140.93493,139.66681 144.15018,141.71287 C 144.92962,142.20002 145.75779,142.63847 146.63468,143.02819 C 150.23963,144.19737 153.5523,144.00251 156.5727,142.4436 C 157.15727,144.00251 158.32644,144.83067 160.08024,144.92811 C 161.24939,145.02554 162.2237,144.63581 163.00318,143.75893 C 163.68517,142.88204 164.02618,141.46929 164.02621,139.52066 M 150.87295,118.47544 C 152.82157,118.47547 154.33175,119.35235 155.40352,121.10609 C 156.08552,122.37272 156.37781,125.24695 156.28041,129.72878 C 155.98809,132.94404 154.86763,134.94138 152.91902,135.72082 C 152.23698,135.9157 151.31138,135.96441 150.14222,135.86697 C 148.19357,135.57469 146.82953,134.50294 146.05009,132.65173 C 145.85522,132.26202 145.75779,131.87229 145.7578,131.48255 C 144.97834,128.46219 144.97834,125.49053 145.7578,122.56757 C 146.14751,120.61896 147.31669,119.35235 149.26533,118.76774 C 149.84991,118.5729 150.38578,118.47547 150.87295,118.47544 M 184.72204,143.90508 L 185.30663,143.90508 L 185.30663,143.90508 C 187.64497,143.80764 189.88589,143.02819 192.02941,141.56672 C 195.53692,139.22837 197.68041,135.37982 198.45989,130.02108 C 198.65472,128.94935 198.75215,127.78017 198.75219,126.51354 C 198.75215,120.37538 196.90096,115.74739 193.19859,112.62955 C 190.66534,110.38866 187.83983,109.26819 184.72204,109.26816 C 182.38367,109.56049 180.33761,110.04765 178.58386,110.72963 L 178.58386,99.768583 C 178.58384,98.59945 178.19412,97.673851 177.41468,96.991784 C 176.63522,96.114948 175.70962,95.676507 174.63788,95.676458 C 172.98154,95.676507 171.86107,96.455958 171.27649,98.014815 C 170.98419,98.502019 170.83804,99.086607 170.83805,99.768583 L 170.83805,127.97502 C 170.83804,134.89267 173.22511,139.71552 177.99927,142.4436 C 180.24018,143.61278 182.4811,144.09994 184.72204,143.90508 M 178.58386,127.97502 L 178.58386,123.15216 C 178.58384,120.81382 179.26586,119.2062 180.62992,118.32929 C 180.82477,118.23189 181.11706,118.08574 181.5068,117.89085 C 182.57853,117.30629 183.65028,117.01399 184.72204,117.01397 C 185.8912,117.20886 186.86552,117.54987 187.64499,118.037 C 189.88589,119.4985 191.00635,122.32401 191.00638,126.51354 C 191.00635,130.70311 189.88589,133.57734 187.64499,135.13624 C 186.67065,135.81826 185.69634,136.20799 184.72204,136.30541 L 184.2836,136.30541 C 181.06835,136.30542 179.21715,134.45422 178.73,130.75182 C 178.63256,129.87495 178.58384,128.94935 178.58386,127.97502 M 219.40691,109.12201 C 222.42727,109.12205 225.15535,109.9015 227.59116,111.46037 C 228.85774,112.33728 229.49105,113.50646 229.49107,114.9679 C 229.29618,116.52684 228.51673,117.6473 227.15272,118.32929 C 225.78865,118.91391 224.52204,118.76776 223.35289,117.89085 C 222.28112,117.30629 220.9658,117.01399 219.40691,117.01397 C 218.14028,117.01399 216.92239,117.355 215.75323,118.037 C 213.60972,119.4985 212.53797,122.27529 212.53799,126.3674 L 212.53799,126.51354 C 212.53797,130.89798 213.561,133.7722 215.60708,135.13624 C 216.67881,135.81826 217.94542,136.15927 219.40691,136.15927 C 220.9658,136.15927 222.28112,135.81826 223.35289,135.13624 C 224.52204,134.16193 225.78865,134.01578 227.15272,134.69779 C 228.51673,135.37982 229.29618,136.50028 229.49107,138.05918 C 229.49105,139.61809 228.85774,140.73855 227.59116,141.42057 C 225.15535,143.07691 222.42727,143.90508 219.40691,143.90508 C 216.38652,143.90508 213.75587,143.12562 211.51495,141.56672 C 207.0331,138.74121 204.79217,133.67477 204.79218,126.3674 C 204.79217,120.1318 206.69209,115.45509 210.49192,112.33725 C 212.9277,110.19379 215.89936,109.12205 219.40691,109.12201 M 263.39155,127.97502 L 263.39155,99.768583 C 263.39152,98.59945 263.00179,97.673851 262.22237,96.991784 C 261.54032,96.114948 260.61472,95.676507 259.44557,95.676458 C 257.78921,95.676507 256.62003,96.455958 255.93804,98.014815 C 255.74315,98.502019 255.64572,99.086607 255.64574,99.768583 L 255.64574,110.87578 C 253.50223,109.9015 251.40745,109.41434 249.36141,109.41431 C 246.53588,109.6092 244.19752,110.33994 242.34634,111.60652 C 237.76705,114.62692 235.47741,119.64464 235.47741,126.65969 C 235.47741,132.79789 237.37732,137.52331 241.17716,140.83598 L 242.34634,141.56672 C 244.48982,143.02819 246.68203,143.80764 248.92297,143.90508 L 248.92297,143.90508 L 249.06911,143.90508 L 249.36141,143.90508 L 249.36141,143.90508 C 251.69974,144.09994 254.0381,143.61278 256.37648,142.4436 C 259.68912,140.68984 261.83262,137.57203 262.80696,133.09017 C 263.19666,131.53128 263.39152,129.82623 263.39155,127.97502 M 255.64574,123.2983 L 255.64574,127.97502 C 255.74315,132.16459 254.76884,134.6978 252.7228,135.57468 C 251.84589,136.15927 250.92029,136.40285 249.946,136.30541 L 249.36141,136.30541 C 248.28964,136.01313 247.31533,135.6234 246.43846,135.13624 C 244.39239,133.18762 243.32064,130.3621 243.22322,126.65969 C 243.22321,122.37272 244.29495,119.4985 246.43846,118.037 C 247.60762,117.355 248.58194,117.01399 249.36141,117.01397 C 250.72543,117.20886 251.84589,117.50115 252.7228,117.89085 C 254.08682,118.67033 254.9637,119.54721 255.35345,120.5215 C 255.54829,121.30098 255.64572,122.22658 255.64574,123.2983 M 285.3616,135.86697 L 284.04627,135.86697 C 280.83102,135.37982 278.88239,133.47991 278.20038,130.16723 L 294.13044,130.16723 C 295.88418,130.16724 297.05336,129.38779 297.63797,127.82887 C 297.83281,127.34173 297.93024,126.85457 297.93027,126.3674 L 297.93027,124.90592 C 297.93024,118.08574 295.59188,113.21417 290.9152,110.29119 C 289.16141,109.31691 287.16406,108.82975 284.92316,108.82972 C 281.90276,108.82975 279.2234,109.65792 276.88505,111.31422 C 272.59806,114.13977 270.30842,118.86519 270.01613,125.49051 C 269.9187,126.07512 269.9187,126.61099 270.01613,127.09813 C 270.30842,133.43119 272.59806,138.15662 276.88505,141.27442 C 279.2234,142.93076 281.61047,143.75893 284.04627,143.75893 C 287.45636,143.85636 289.89214,143.75893 291.35364,143.46663 C 293.39968,142.97948 295.10473,142.15131 296.4688,140.98213 C 297.73538,140.10525 298.22253,138.93607 297.93027,137.47459 C 297.73538,135.9157 297.00464,134.84395 295.73806,134.25935 C 294.27656,133.7722 292.96123,134.01578 291.79208,134.99009 C 290.91517,135.57469 288.77168,135.86698 285.3616,135.86697 M 284.77701,116.72167 C 285.75131,116.7217 286.57947,116.91656 287.26151,117.30626 C 288.8204,118.08574 289.79471,119.69336 290.18446,122.12912 L 290.18446,122.42142 L 278.20038,122.42142 C 278.5901,120.27795 279.56441,118.67033 281.12333,117.59856 C 282.19506,117.01399 283.16937,116.7217 284.04627,116.72167 L 284.48472,116.72167 L 284.77701,116.72167 M 322.09595,95.676458 L 324.14202,95.968753 C 325.60346,96.358527 326.57778,97.284125 327.06496,98.745552 C 327.45466,100.3045 327.06494,101.61983 325.89578,102.69153 C 324.82401,103.76332 323.5574,104.05561 322.09595,103.56841 L 319.61145,103.27612 C 318.73455,103.27616 318.05253,103.56845 317.56539,104.153 C 317.07821,104.6402 316.83463,105.61451 316.83465,107.07595 L 316.83465,110.72963 L 323.11898,110.72963 C 324.58043,110.63223 325.7009,111.26554 326.48037,112.62955 C 327.2598,113.99362 327.2598,115.26023 326.48037,116.42938 C 325.7009,117.79345 324.58043,118.47547 323.11898,118.47544 L 316.83465,118.47544 L 316.83465,140.10524 C 316.83463,141.66415 316.25004,142.83333 315.08088,143.61278 C 313.71683,144.39223 312.35279,144.39223 310.98876,143.61278 C 309.72214,142.83333 309.08883,141.66415 309.08884,140.10524 L 309.08884,118.47544 L 308.21196,118.47544 C 306.65305,118.47547 305.48387,117.79345 304.70442,116.42938 C 304.0224,115.26023 304.0224,113.99362 304.70442,112.62955 C 305.48387,111.26554 306.65305,110.63223 308.21196,110.72963 L 309.08884,110.72963 L 309.08884,107.07595 C 309.08883,103.76332 309.917,101.13267 311.57335,99.183994 C 312.93738,97.430273 314.83729,96.309811 317.27309,95.822606 C 318.83198,95.530359 320.4396,95.481644 322.09595,95.676458 M 360.87067,140.10524 L 360.87067,125.19822 C 360.87064,119.25492 359.16559,114.77307 355.75551,111.75266 C 353.51456,109.99893 350.88391,109.12205 347.86356,109.12201 C 344.84316,109.12205 342.1638,109.9015 339.82545,111.46037 C 336.22048,113.79876 334.02827,117.59858 333.24882,122.85986 C 333.05396,124.02906 332.95653,125.24695 332.95653,126.51354 C 332.95653,132.74917 334.85644,137.4746 338.65628,140.68983 L 339.82545,141.56672 C 342.1638,143.12562 344.55087,143.90508 346.98667,143.90508 C 349.22758,143.71021 351.27364,143.22305 353.12486,142.4436 C 352.92997,145.95114 352.34539,148.09463 351.37109,148.87408 C 350.68905,149.36124 348.83785,149.60481 345.81749,149.60482 C 345.03803,149.50738 344.30729,149.36124 343.62528,149.16638 L 341.87152,148.28949 L 342.01766,148.72794 C 341.2382,147.46132 340.11774,146.82802 338.65628,146.82802 C 337.09736,146.82802 335.9769,147.51004 335.29489,148.87408 C 334.61286,150.23812 334.66158,151.50473 335.44103,152.67391 C 336.51277,154.5251 338.16911,155.79171 340.41004,156.47374 C 341.09205,156.57116 341.48178,156.61988 341.57922,156.61989 L 344.94061,157.35063 L 345.5252,157.35063 C 349.13015,157.35062 351.66337,157.10704 353.12486,156.61989 C 354.19658,156.13272 355.21961,155.54813 356.19395,154.86612 C 359.31173,152.0406 360.87064,147.12031 360.87067,140.10524 M 347.71741,116.86782 C 348.69171,116.86785 349.51987,117.11143 350.20191,117.59856 C 352.24795,118.5729 353.27098,121.10612 353.27101,125.19822 L 353.27101,129.87493 C 353.27098,132.40816 352.54025,134.11321 351.0788,134.99009 L 350.34806,135.13624 C 349.27629,135.72083 348.15583,136.06184 346.98667,136.15927 C 342.89453,135.57469 340.79976,132.5056 340.70234,126.95199 L 340.70234,126.51354 C 340.70233,122.32401 341.82279,119.44978 344.06373,117.89085 C 345.13546,117.30629 346.10977,117.01399 346.98667,117.01397 C 347.18152,117.01399 347.32767,116.96528 347.42511,116.86782 L 347.71741,116.86782 M 368.22599,139.81295 L 368.22599,99.476289 C 368.22599,97.91743 368.90801,96.699537 370.27206,95.822606 C 370.85664,95.627791 371.44123,95.530359 372.02582,95.530311 C 373.19499,95.530359 374.12059,95.871369 374.80262,96.553342 C 375.58206,97.332841 375.97179,98.307156 375.9718,99.476289 L 375.9718,110.58349 C 378.01785,109.6092 380.06391,109.12205 382.10999,109.12201 C 386.88411,109.12205 390.53779,110.8271 393.07104,114.23717 C 395.2145,116.86785 396.23753,119.79079 396.14013,123.00601 L 396.14013,139.81295 C 396.23753,141.37186 395.60423,142.54103 394.24022,143.32049 C 392.87615,144.00251 391.60954,144.00251 390.44039,143.32049 C 389.07632,142.54103 388.3943,141.37186 388.39432,139.81295 L 388.39432,123.00601 C 388.00457,119.69336 386.8354,117.74473 384.88679,117.16011 C 384.20475,116.86785 383.27915,116.7217 382.10999,116.72167 C 379.67418,116.7217 378.06657,117.50115 377.28713,119.06003 C 376.50766,120.61896 376.06922,121.93428 375.9718,123.00601 L 375.9718,139.81295 C 375.97179,141.76158 375.04619,143.02819 373.195,143.61278 C 371.63609,144.00251 370.27205,143.61278 369.10288,142.4436 C 368.51828,141.76158 368.22599,140.8847 368.22599,139.81295 M 406.7004,95.091869 C 405.04406,95.286781 403.97231,96.163664 403.48516,97.722521 C 403.29029,98.112293 403.19286,98.550734 403.19287,99.037847 L 403.19287,99.622436 C 403.19286,101.08395 403.82617,102.20441 405.09278,102.98382 C 406.35938,103.76332 407.67471,103.76332 409.03876,102.98382 C 410.30536,102.20441 410.93866,101.08395 410.93867,99.622436 L 410.93867,99.037847 C 410.93866,97.868714 410.50022,96.845684 409.62335,95.968753 C 408.74646,95.189349 407.77214,94.897055 406.7004,95.091869 M 406.9927,109.12201 C 405.33635,109.12205 404.21589,109.9015 403.63131,111.46037 C 403.33901,111.94756 403.19286,112.48343 403.19287,113.06799 L 403.19287,139.9591 C 403.19286,141.42057 403.82617,142.54103 405.09278,143.32049 C 406.35938,144.09994 407.67471,144.09994 409.03876,143.32049 C 410.30536,142.54103 410.93866,141.42057 410.93867,139.9591 L 410.93867,113.06799 C 410.93866,111.99627 410.54894,111.07068 409.7695,110.29119 C 409.08747,109.51177 408.16187,109.12205 406.9927,109.12201 M 421.78212,95.384164 C 420.22321,95.481644 419.10274,96.261095 418.42073,97.722521 C 418.12843,98.209724 417.98228,98.745597 417.98229,99.330141 L 417.98229,100.06088 C 417.98228,101.42496 418.6643,102.49671 420.02835,103.27612 C 421.39238,104.05561 422.65899,104.05561 423.82818,103.27612 C 425.19221,102.49671 425.82551,101.42496 425.7281,100.06088 L 425.7281,99.330141 C 425.82551,98.25844 425.4845,97.284125 424.70507,96.407195 C 423.9256,95.725222 422.95129,95.384212 421.78212,95.384164 M 421.78212,108.82972 C 420.22321,108.82975 419.10274,109.6092 418.42073,111.16807 C 418.12843,111.55783 417.98228,112.09371 417.98229,112.7757 L 417.98229,145.95114 C 417.98228,147.31518 417.78742,148.28949 417.3977,148.87408 C 416.61824,149.75096 415.15677,149.94583 413.01328,149.45867 C 411.45438,148.97151 410.09034,149.2638 408.92116,150.33556 C 407.94684,151.4073 407.65455,152.67391 408.04427,154.13539 C 408.434,155.59685 409.31088,156.47373 410.67492,156.76604 L 413.59787,157.35063 C 417.88485,157.54548 421.1488,156.3763 423.38974,153.84309 C 424.94863,151.79702 425.72808,149.16637 425.7281,145.95114 L 425.7281,112.7757 C 425.82551,111.70398 425.4845,110.77838 424.70507,109.9989 C 423.9256,109.21948 422.95129,108.82975 421.78212,108.82972 M 436.65491,94.945722 C 437.72665,94.945771 438.65225,95.335496 439.43171,96.1149 C 440.21115,96.8944 440.60087,97.819998 440.60088,98.891699 L 440.60088,120.37536 L 453.02341,108.53742 C 454.28999,107.36828 455.75147,107.1247 457.40783,107.80669 C 457.79753,108.00159 458.18725,108.29388 458.57701,108.68357 C 459.74615,109.95021 459.98973,111.36297 459.30774,112.92184 C 459.01542,113.40903 458.72312,113.84747 458.43086,114.23717 L 449.36972,122.71371 L 460.33077,137.62074 C 461.40249,139.08222 461.45121,140.54369 460.47692,142.00516 C 460.1846,142.39489 459.84359,142.7359 459.45389,143.02819 C 458.08982,144.09994 456.62835,144.14865 455.06947,143.17434 C 454.67972,142.97948 454.33871,142.68718 454.04644,142.29745 L 443.66998,128.12116 L 440.60088,131.04411 L 440.60088,139.9591 C 440.60087,141.42057 439.96757,142.54103 438.70097,143.32049 C 437.33692,144.09994 436.0216,144.09994 434.75499,143.32049 C 433.48838,142.54103 432.85507,141.42057 432.85508,139.9591 L 432.85508,98.891699 C 432.85507,97.23541 433.58581,96.066232 435.04729,95.384164 C 435.53444,95.091918 436.07031,94.945771 436.65491,94.945722 M 473.30476,100.06088 C 473.30475,98.307156 472.5253,97.089263 470.96641,96.407195 C 470.57667,96.212379 470.08952,96.114948 469.50493,96.1149 C 467.94602,96.114948 466.77685,96.845684 465.9974,98.30711 C 465.80253,98.794313 465.7051,99.378902 465.7051,100.06088 L 465.7051,140.10524 C 465.7051,141.66415 466.43584,142.78461 467.89731,143.46663 C 468.38446,143.6615 468.92034,143.75893 469.50493,143.75893 C 471.16126,143.75893 472.33044,143.02819 473.01247,141.56672 C 473.20732,141.07956 473.30475,140.59241 473.30476,140.10524 L 473.30476,100.06088 M 491.43961,108.97586 C 494.75226,108.9759 497.57777,109.99893 499.91615,112.04496 C 502.25448,109.99893 505.03128,108.9759 508.24655,108.97586 C 512.33864,108.9759 515.55387,110.43737 517.89227,113.36028 C 519.74343,115.60124 520.62031,118.13446 520.52292,120.95995 L 520.52292,139.81295 C 520.52288,141.27443 519.88957,142.39489 518.62301,143.17434 C 517.35636,143.95379 516.04103,143.95379 514.67703,143.17434 C 513.41038,142.39489 512.77708,141.27443 512.77711,139.81295 L 512.77711,120.95995 C 512.48478,118.86519 511.70533,117.54987 510.43876,117.01397 C 509.95157,116.81913 509.22083,116.7217 508.24655,116.72167 C 506.39532,116.7217 505.17743,117.20886 504.59286,118.18315 C 504.10568,119.06005 503.81338,119.98565 503.71598,120.95995 L 503.71598,129.07112 C 503.71595,130.53261 503.08265,131.65307 501.81607,132.43251 C 500.54943,133.21197 499.23411,133.21197 497.87009,132.43251 C 496.60346,131.7505 495.97015,130.63004 495.97017,129.07112 L 495.97017,120.95995 C 495.67786,118.86519 494.89841,117.54987 493.63182,117.01397 C 493.14464,116.81913 492.4139,116.7217 491.43961,116.72167 C 489.68582,116.7217 488.51665,117.20886 487.93207,118.18315 C 487.34747,119.2062 487.00646,120.1318 486.90904,120.95995 L 486.90904,139.81295 C 487.00646,141.27443 486.37315,142.39489 485.00912,143.17434 C 483.74251,143.95379 482.42718,143.95379 481.06315,143.17434 C 479.79653,142.39489 479.16323,141.27443 479.16323,139.81295 L 479.16323,120.95995 C 479.55295,114.91922 482.28103,111.11939 487.34748,109.56045 C 488.61408,109.17076 489.97812,108.9759 491.43961,108.97586 M 152.04213,200.61024 C 149.11917,200.61027 146.48852,201.43844 144.15018,203.09474 C 139.76575,206.01772 137.57354,210.93801 137.57355,217.85562 C 137.47611,224.38355 139.2786,229.2064 142.981,232.32421 C 145.61164,234.27284 148.63201,235.24715 152.04213,235.24715 C 155.06249,235.24715 157.79057,234.4677 160.22638,232.9088 C 164.61077,229.98585 166.80298,224.96813 166.80301,217.85562 C 166.80298,211.2303 164.61077,206.2613 160.22638,202.94859 C 157.888,201.38972 155.15992,200.61027 152.04213,200.61024 M 145.17321,218.44021 L 145.17321,217.85562 C 145.1732,213.66609 146.24494,210.88929 148.38845,209.52522 C 149.55761,208.7458 150.77551,208.35607 152.04213,208.35604 C 156.81626,208.35607 159.20333,211.52259 159.20335,217.85562 C 159.20333,224.38355 156.81626,227.6475 152.04213,227.64749 C 147.46284,227.6475 145.1732,224.57841 145.17321,218.44021 M 187.44061,200.61024 L 187.00217,200.61024 C 184.56637,200.41541 182.27673,200.90257 180.13325,202.07171 C 176.82057,203.82551 174.67708,206.99203 173.70277,211.57129 C 173.31304,213.13021 173.11817,214.78655 173.11818,216.54029 L 173.11818,244.89288 C 173.11817,246.35434 173.70276,247.4748 174.87195,248.25426 C 176.23598,249.0337 177.60002,249.0337 178.96407,248.25426 C 180.13324,247.4748 180.71783,246.35434 180.71784,244.89288 L 180.71784,233.78568 C 182.86132,234.76 184.9561,235.24715 187.00217,235.24715 C 189.82767,234.95486 192.21474,234.17541 194.16339,232.9088 C 197.76833,230.47301 199.96054,226.62447 200.74002,221.36316 C 200.83742,220.29142 200.88614,219.12225 200.88617,217.85562 C 200.88614,210.93801 198.64521,205.969 194.16339,202.94859 C 192.11731,201.48715 189.87638,200.75642 187.44061,200.75638 L 187.44061,200.61024 M 180.71784,221.21701 L 180.71784,216.54029 C 180.71783,212.44819 181.74086,209.91497 183.78693,208.94063 C 184.6638,208.4535 185.5894,208.25864 186.56373,208.35604 C 186.75858,208.35607 186.90472,208.35607 187.00217,208.35604 L 188.60979,208.64834 C 191.63015,210.01241 193.14034,213.0815 193.14036,217.85562 C 193.14034,222.04519 192.06859,224.91942 189.92512,226.47831 C 188.95078,227.16034 187.97647,227.50135 187.00217,227.50134 C 183.78692,227.01419 181.83829,225.89373 181.15628,224.13996 C 180.86397,223.36052 180.71783,222.3862 180.71784,221.21701 M 220.37857,200.61024 L 220.81701,200.61024 C 223.35021,200.41541 225.68857,200.90257 227.83208,202.07171 C 231.14473,203.82551 233.28822,206.99203 234.26257,211.57129 C 234.65226,213.13021 234.84712,214.78655 234.84715,216.54029 L 234.84715,244.89288 C 234.84712,246.35434 234.26254,247.4748 233.09339,248.25426 C 231.72932,249.0337 230.36528,249.0337 229.00126,248.25426 C 227.73463,247.4748 227.10132,246.35434 227.10135,244.89288 L 227.10135,233.78568 C 224.95783,234.76 222.86306,235.24715 220.81701,235.24715 C 218.08891,234.95486 215.75056,234.17541 213.80194,232.9088 C 209.22265,229.79099 206.93301,224.77327 206.93302,217.85562 C 206.93301,210.93801 209.22265,205.969 213.80194,202.94859 C 215.94542,201.48715 218.13763,200.75642 220.37857,200.75638 L 220.37857,200.61024 M 227.10135,221.21701 L 227.10135,216.54029 C 227.19875,212.44819 226.22444,209.91497 224.1784,208.94063 C 223.3015,208.4535 222.3759,208.25864 221.4016,208.35604 L 220.81701,208.35604 L 219.35554,208.64834 C 218.86837,208.84323 218.38121,209.08681 217.89407,209.37908 C 215.75056,210.84057 214.67881,213.66609 214.67882,217.85562 C 214.67881,222.04519 215.75056,224.91942 217.89407,226.47831 C 219.06323,227.16034 220.03754,227.50135 220.81701,227.50134 C 222.18104,227.30649 223.3015,226.96548 224.1784,226.47831 C 225.54242,225.89373 226.4193,225.11428 226.80905,224.13996 C 227.00389,223.36052 227.10132,222.3862 227.10135,221.21701 M 257.36754,200.46409 C 262.72626,200.46412 266.76966,202.85119 269.49777,207.62531 C 270.27719,209.08681 270.27719,210.49956 269.49777,211.86358 C 268.62086,213.13021 267.40297,213.7148 265.84409,213.61735 C 264.28516,213.42251 263.21341,212.59434 262.62885,211.13284 C 261.9468,209.76883 261.06992,208.94066 259.9982,208.64834 C 259.21872,208.4535 258.34184,208.35607 257.36754,208.35604 C 254.83431,208.35607 253.12926,209.03809 252.25239,210.40211 C 252.15494,210.597 252.0088,210.84057 251.81395,211.13284 C 251.32678,212.20461 251.03448,213.32508 250.93706,214.49423 L 250.93706,231.30117 C 250.93705,232.76265 250.35246,233.88311 249.18329,234.66256 C 247.81924,235.44202 246.50392,235.44202 245.23732,234.66256 C 243.9707,233.88311 243.3374,232.76265 243.3374,231.30117 L 243.3374,214.49423 C 243.82455,207.77148 246.79621,203.43578 252.25239,201.48712 C 253.81128,200.80513 255.51633,200.46412 257.36754,200.46409 M 287.1245,200.31794 C 289.95,200.31798 292.38578,200.85385 294.43187,201.92556 C 297.74451,203.77679 299.15727,205.87157 298.67014,208.2099 C 298.47525,209.6714 297.54965,210.64571 295.89334,211.13284 C 294.43184,211.52259 293.21395,211.18158 292.23966,210.10981 C 290.8756,208.06378 288.68339,207.23561 285.66303,207.62531 C 285.46815,207.62534 285.322,207.67405 285.22458,207.77146 C 283.56824,207.96635 282.44778,208.79451 281.8632,210.25596 C 281.57089,211.03544 281.66832,211.8636 282.15549,212.74046 C 283.32466,213.51994 285.22457,213.86095 287.85524,213.7635 C 289.41412,213.76352 290.5833,213.86095 291.36277,214.05579 C 294.48056,214.34811 297.01378,215.90701 298.96243,218.7325 C 300.22902,220.48629 300.8136,222.3862 300.7162,224.43225 C 300.8136,227.55007 299.54699,230.132 296.91637,232.17806 C 295.8446,232.95751 294.72414,233.5421 293.55498,233.93183 C 288.39109,235.58816 283.81182,235.58816 279.81713,233.93183 C 276.60189,232.37292 274.70197,230.52173 274.11739,228.37823 C 273.72766,226.7219 274.36096,225.40658 276.0173,224.43225 C 277.5762,223.45795 278.98896,223.50666 280.25558,224.5784 C 280.45043,224.67584 280.59658,224.77327 280.69402,224.87069 C 282.35034,227.01419 285.27329,227.74493 289.46286,227.0629 C 291.11917,226.96548 292.23964,226.33217 292.82424,225.16299 C 293.21395,224.48098 293.21395,223.75024 292.82424,222.97078 C 291.94734,221.99647 290.38844,221.50932 288.14753,221.5093 C 283.27594,221.70418 279.71969,220.72987 277.47878,218.58636 C 275.04298,216.54031 273.92252,213.86095 274.11739,210.54825 C 274.11739,208.40479 274.75069,206.50487 276.0173,204.84851 C 278.25822,201.73073 281.86319,200.22055 286.8322,200.31794 L 287.1245,200.31794 M 313.72788,186.72624 C 314.89705,186.72629 315.87136,187.11602 316.65083,187.89542 C 317.43027,188.67492 317.77128,189.60052 317.67386,190.67222 L 317.67386,200.75638 L 322.49672,200.75638 C 324.0556,200.75642 325.22478,201.43844 326.00426,202.80245 C 326.78368,203.97166 326.78368,205.23827 326.00426,206.60228 C 325.22478,207.96635 324.0556,208.59965 322.49672,208.50219 L 317.67386,208.50219 L 317.67386,223.70151 C 317.67384,225.163 317.91742,226.13731 318.4046,226.62446 C 318.69687,227.01419 319.18403,227.25777 319.86607,227.3552 C 320.6455,227.6475 321.61982,227.59878 322.78902,227.20905 C 324.3479,226.7219 325.71194,227.06291 326.88114,228.23208 C 327.85543,229.2064 328.14773,230.47301 327.75802,232.03191 C 327.36827,233.49339 326.44267,234.41898 324.98122,234.80871 L 322.20443,235.24715 C 317.91742,235.53945 314.70218,234.37027 312.5587,231.73962 C 310.80493,229.69356 309.92804,227.01419 309.92805,223.70151 L 309.92805,208.50219 L 307.58969,208.50219 C 306.03079,208.59965 304.91032,207.96635 304.22831,206.60228 C 303.44885,205.23827 303.44885,203.97166 304.22831,202.80245 C 304.91032,201.43844 306.03079,200.75642 307.58969,200.75638 L 309.92805,200.75638 L 309.92805,190.67222 C 309.92804,189.11336 310.61006,187.89547 311.97411,187.01854 C 312.55869,186.82372 313.14328,186.72629 313.72788,186.72624 M 335.48214,200.46409 C 336.55388,200.46412 337.52819,200.85385 338.40509,201.63327 C 339.18453,202.41275 339.57425,203.38707 339.57427,204.55621 L 339.57427,221.21701 C 339.57425,222.58106 339.81783,223.70153 340.305,224.5784 C 340.98701,225.84502 341.81518,226.67318 342.78951,227.0629 C 343.66637,227.3552 344.64069,227.50135 345.71245,227.50134 C 348.14822,227.50135 349.80456,226.77062 350.68146,225.30913 L 351.1199,224.5784 C 351.60704,223.50666 351.85062,222.3862 351.85064,221.21701 L 351.85064,204.55621 C 351.85062,202.99734 352.53264,201.82816 353.8967,201.04868 C 355.26072,200.26926 356.52733,200.26926 357.69653,201.04868 C 359.06054,201.82816 359.74256,202.99734 359.7426,204.55621 L 359.7426,221.21701 C 359.15798,227.93979 356.1376,232.32421 350.68146,234.37027 C 349.12254,234.95486 347.4662,235.24715 345.71245,235.24715 C 341.03573,235.24715 337.38205,233.49339 334.7514,229.98585 C 334.26424,229.40127 333.8258,228.76796 333.43608,228.08593 C 332.2669,225.84502 331.68231,223.55538 331.68231,221.21701 L 331.68231,204.55621 C 331.68231,202.80248 332.41304,201.58459 333.87452,200.90253 C 334.36167,200.61027 334.89754,200.46412 335.48214,200.46409 M 368.1141,199.8795 C 369.77043,199.7821 370.98833,200.46412 371.76779,201.92556 L 372.06008,202.51015 C 374.20356,211.76617 376.15219,218.53766 377.90597,222.82463 L 379.07515,225.16299 C 379.27,225.45529 379.46486,225.30914 379.65974,224.72455 C 381.80322,220.14528 384.09286,213.22764 386.52867,203.97163 C 386.72351,202.02303 387.60039,200.75642 389.15932,200.17179 L 389.74391,199.8795 C 391.40022,199.48981 392.81297,200.02568 393.98218,201.48712 C 394.7616,202.36404 395.05389,203.33835 394.85906,204.41007 C 393.78729,209.18424 392.32581,214.39682 390.47464,220.04783 C 388.52599,225.40658 386.91837,229.06026 385.65178,231.00888 C 385.26203,231.59347 384.87231,232.12935 384.4826,232.6165 C 383.11854,234.4677 381.31606,235.34458 379.07515,235.24715 C 378.58798,235.24715 378.10082,235.14972 377.61368,234.95486 C 375.17788,234.17541 373.03439,231.83705 371.1832,227.93979 C 370.98833,227.6475 370.84218,227.30649 370.74476,226.91675 C 368.40639,221.4606 366.21419,214.10453 364.16813,204.84851 C 363.7784,203.1922 364.31427,201.77945 365.77575,200.61024 C 366.45776,200.02568 367.23722,199.7821 368.1141,199.8795 M 402.53751,200.61024 C 403.99897,200.51284 405.11944,201.14614 405.8989,202.51015 C 406.19118,202.99734 406.33733,203.53321 406.33734,204.11777 L 406.33734,219.17095 L 406.48349,223.84766 C 406.58091,224.52969 406.77577,225.163 407.06808,225.74758 C 407.65265,227.20906 409.40642,227.79365 412.32938,227.50134 C 413.88827,227.40392 414.86258,226.23474 415.25233,223.99381 C 415.34974,223.89639 415.39845,223.79896 415.39847,223.70151 L 415.54462,217.12488 L 415.54462,216.83259 C 415.8369,215.46857 416.76249,214.54297 418.32142,214.05579 C 419.58801,213.76352 420.70847,214.0071 421.68281,214.78653 C 422.75453,215.566 423.24169,217.02747 423.14428,219.17095 L 423.29043,223.84766 C 423.38783,224.52969 423.5827,225.163 423.87502,225.74758 C 424.36215,227.01419 426.11591,227.59878 429.13632,227.50134 C 430.69519,227.40392 431.66951,226.23474 432.05927,223.99381 C 432.15666,223.79896 432.20538,223.65281 432.20542,223.55537 L 432.20542,205.57925 C 432.01052,203.33835 432.64382,201.82816 434.10533,201.04868 C 435.46933,200.17183 436.88209,200.26926 438.3436,201.34097 C 439.31788,202.02303 439.85375,202.89991 439.95122,203.97163 L 439.95122,221.21701 C 440.14604,225.40658 439.22044,228.71925 437.17442,231.15503 C 434.83603,233.98054 431.66951,235.3933 427.67485,235.3933 C 424.36215,235.29587 421.58535,234.22412 419.34445,232.17806 C 416.51892,234.71128 413.15753,235.73431 409.26029,235.24715 C 407.60394,235.05229 406.09375,234.56513 404.72972,233.78568 C 401.70934,232.22678 399.80942,229.69356 399.02997,226.18602 C 398.83511,225.50401 398.73768,224.82199 398.73768,224.13996 L 398.73768,205.1408 C 398.44538,203.4845 398.98125,202.16917 400.3453,201.19483 C 401.02731,200.7077 401.75805,200.51284 402.53751,200.61024 M 447.47438,200.46409 C 448.74098,200.46412 449.76401,200.95128 450.54347,201.92556 L 458.43543,211.71743 L 466.32738,201.92556 C 467.30167,200.75642 468.51956,200.26926 469.98106,200.46409 C 471.44251,200.75642 472.46554,201.58459 473.05016,202.94859 C 473.53728,204.31267 473.29371,205.57928 472.31942,206.74842 L 463.40443,217.85562 L 472.31942,228.81667 C 473.29371,229.98585 473.53728,231.30118 473.05016,232.76265 C 472.46554,234.12669 471.44251,234.90614 469.98106,235.10101 C 468.51956,235.3933 467.30167,234.95486 466.32738,233.78568 L 458.43543,223.99381 L 450.54347,233.78568 C 449.56915,234.95486 448.35125,235.3933 446.88979,235.10101 C 445.42831,234.90614 444.40528,234.12669 443.82069,232.76265 C 443.33353,231.30118 443.57711,229.98585 444.55143,228.81667 L 453.46642,217.85562 L 444.55143,206.74842 C 443.47968,205.48184 443.28482,204.1178 443.96684,202.6563 C 444.64886,201.19486 445.81804,200.46412 447.47438,200.46409 M 509.88615,204.41007 L 509.88615,233.05494 C 509.88612,238.90083 508.61951,243.04167 506.08632,245.47746 C 504.04023,247.62095 500.67885,248.69269 496.00216,248.69271 C 491.52029,249.27728 487.42817,248.44911 483.72578,246.2082 C 482.45917,245.42874 481.82586,244.30828 481.82586,242.84681 C 481.82586,241.2879 482.50788,240.16744 483.87193,239.48542 C 485.13853,238.70597 486.40514,238.75468 487.67176,239.63157 C 489.23065,240.50845 491.8613,240.94689 495.56371,240.9469 L 495.85601,240.9469 C 498.38921,240.94689 499.99683,240.60588 500.67887,239.92387 C 501.55573,239.14441 501.99417,237.09835 501.9942,233.78568 C 499.26609,235.14972 496.34315,235.53945 493.22536,234.95486 C 486.98973,233.29852 483.28733,228.81668 482.11816,221.5093 C 481.92329,220.34014 481.82586,219.12225 481.82586,217.85562 L 481.82586,204.41007 C 481.82586,202.65633 482.60531,201.43844 484.16422,200.75638 C 484.55394,200.56156 485.0411,200.46412 485.6257,200.46409 C 486.79487,200.46412 487.76918,200.85385 488.54864,201.63327 C 489.32808,202.41275 489.71781,203.33835 489.71782,204.41007 L 489.71782,217.85562 C 489.71781,222.04519 490.78955,224.91942 492.93306,226.47831 C 493.90736,227.16034 494.88168,227.50135 495.85601,227.50134 C 497.1226,227.40392 498.19434,227.06291 499.07125,226.47831 C 500.43527,225.89373 501.31215,225.11428 501.7019,224.13996 C 501.89674,223.36052 501.99417,222.3862 501.9942,221.21701 L 501.9942,204.41007 C 501.99417,202.94863 502.67619,201.77945 504.04026,200.90253 C 505.40427,200.22055 506.67088,200.22055 507.84009,200.90253 C 509.2041,201.77945 509.88612,202.94863 509.88615,204.41007 M 517.69361,201.19483 L 537.86194,201.19483 C 539.42082,201.19486 540.54128,201.9256 541.22333,203.38704 C 542.00276,204.75111 541.90532,206.11515 540.93104,207.47916 L 525.58557,227.50134 L 537.86194,227.50134 C 539.32339,227.50135 540.44385,228.13466 541.22333,229.40126 C 542.00276,230.66787 542.00276,231.9832 541.22333,233.34724 C 540.44385,234.61385 539.32339,235.24715 537.86194,235.24715 L 517.69361,235.24715 C 516.13471,235.24715 514.96553,234.51642 514.18608,233.05494 C 513.50406,231.59347 513.6502,230.22943 514.62452,228.96282 L 529.96999,208.94063 L 517.69361,208.94063 C 516.23214,208.94066 515.11168,208.30736 514.33223,207.04072 C 513.55277,205.67671 513.55277,204.36138 514.33223,203.09474 C 515.11168,201.82816 516.23214,201.19486 517.69361,201.19483 M 144.73477,277.77602 C 145.8065,277.77607 146.7321,278.1658 147.51157,278.9452 C 148.291,279.7247 148.68073,280.6503 148.68074,281.722 L 148.68074,322.4971 C 148.68073,324.05601 147.99871,325.22519 146.63468,326.00464 C 145.36806,326.78409 144.10145,326.78409 142.83485,326.00464 C 141.4708,325.22519 140.8375,324.05601 140.93494,322.4971 L 140.93494,285.66798 L 138.30428,285.66798 C 136.84281,285.66802 135.72235,285.03472 134.9429,283.76806 C 134.16344,282.40407 134.16344,281.08874 134.9429,279.82209 C 135.62492,278.55552 136.74538,277.92222 138.30428,277.92217 L 144.73477,277.77602 M 182.16218,292.09846 C 182.16215,286.44747 179.92123,283.62196 175.43941,283.62192 L 166.67057,283.62192 C 165.59881,283.62196 164.72192,283.81682 164.03991,284.20651 C 163.84504,284.40141 163.74761,284.59627 163.74762,284.7911 C 163.74761,286.44747 163.06559,287.66536 161.70156,288.44478 C 160.24008,289.3217 158.87604,289.3217 157.60943,288.44478 C 156.24539,287.66536 155.56337,286.44747 155.56337,284.7911 C 155.6608,281.67333 156.92741,279.23754 159.3632,277.48373 C 161.40925,276.11974 163.84504,275.43772 166.67057,275.43767 L 175.43941,275.43767 C 179.5315,275.43772 182.99032,276.80176 185.81587,279.52979 C 188.83621,282.55021 190.34639,286.73977 190.34643,292.09846 C 190.34639,297.55466 188.54391,301.74421 184.93898,304.66713 C 181.91857,307.20037 177.58287,308.46698 171.93187,308.46696 C 168.61918,308.46698 166.37826,309.05157 165.20909,310.22073 C 164.23477,311.0002 163.74761,312.60782 163.74762,315.04359 L 163.74762,318.11268 L 186.25431,318.11268 C 187.81318,318.11269 188.98235,318.79471 189.76184,320.15875 C 190.54126,321.52279 190.54126,322.88683 189.76184,324.25087 C 188.98235,325.61492 187.81318,326.29694 186.25431,326.29693 L 159.50935,326.29693 C 157.85301,326.29694 156.63511,325.51748 155.85566,323.95858 C 155.6608,323.37399 155.56337,322.7894 155.56337,322.20481 L 155.56337,315.04359 C 155.56337,310.26946 156.92741,306.61578 159.65549,304.08254 C 162.38357,301.54935 166.47569,300.28274 171.93187,300.28271 C 175.53681,300.28274 178.16746,299.64943 179.82383,298.3828 C 181.3827,297.11622 182.16215,295.02144 182.16218,292.09846 M 204.41311,316.94351 C 205.67971,317.8204 207.28733,318.25884 209.23597,318.25883 L 216.39719,318.40498 C 218.24837,318.40499 219.70984,317.8204 220.78161,316.65121 C 222.24306,315.28718 222.97379,313.14369 222.97382,310.22073 C 222.97379,308.66184 222.77893,307.54138 222.38923,306.85934 C 222.29177,306.56707 222.04819,306.32349 221.6585,306.1286 C 220.78158,305.83633 217.80992,305.69018 212.74351,305.69016 C 210.98972,305.69018 209.82055,304.76458 209.23597,302.91336 C 208.84623,301.06219 209.18724,299.60072 210.259,298.52894 C 210.84358,297.74952 211.67174,297.35979 212.74351,297.35976 C 218.58938,297.35979 221.80461,296.82392 222.38923,295.75214 C 222.77893,295.07015 222.97379,293.94969 222.97382,292.39076 C 222.97379,289.27298 222.24306,287.03206 220.78161,285.66798 C 219.70984,284.59627 218.24837,284.0604 216.39719,284.06036 L 216.25104,284.06036 L 209.23597,283.91421 C 207.77448,283.91425 206.45916,284.20655 205.29,284.7911 C 204.70539,285.18086 204.4131,285.32701 204.41311,285.22954 C 204.4131,286.78848 203.73108,288.00637 202.36705,288.88322 C 201.003,289.66271 199.63896,289.66271 198.27492,288.88322 C 196.81345,288.00637 196.08271,286.78848 196.08271,285.22954 C 196.27757,281.81948 198.12877,279.23754 201.63631,277.48373 C 203.87723,276.3146 206.41044,275.73001 209.23597,275.72996 L 216.39719,275.72996 C 220.39186,275.73001 223.75324,277.09405 226.48136,279.82209 C 229.59913,282.84251 231.15803,287.03206 231.15807,292.39076 C 231.15803,295.11887 230.67088,297.45723 229.6966,299.40583 C 229.40427,299.79558 228.91711,300.42888 228.23512,301.30574 C 229.01454,302.18265 229.5017,302.76724 229.6966,303.05951 C 230.67088,304.91073 231.15803,307.2978 231.15807,310.22073 C 231.15803,315.28718 229.59913,319.3793 226.48136,322.4971 C 223.75324,325.22519 220.39186,326.58923 216.39719,326.58923 L 216.25104,326.58923 L 209.23597,326.58923 C 206.50788,326.58923 203.97466,326.00464 201.63631,324.83546 C 197.93391,323.0817 196.08271,320.54848 196.08271,317.2358 C 196.08271,315.57948 196.81345,314.36158 198.27492,313.58212 C 199.63896,312.70525 201.003,312.70525 202.36705,313.58212 C 203.73108,314.36158 204.4131,315.57948 204.41311,317.2358 L 204.41311,316.94351 M 264.07776,275.43767 C 263.00598,275.53515 262.1291,276.02231 261.4471,276.89914 L 240.40189,301.59804 C 237.86867,304.03385 236.60206,306.56707 236.60206,309.1977 C 236.60206,311.04891 237.23536,312.65653 238.50197,314.02056 C 239.76858,314.99489 241.32748,315.48204 243.17869,315.48203 L 260.57022,315.48203 L 260.57022,322.20481 C 260.57019,323.76372 261.2035,324.93289 262.47014,325.71235 C 263.93158,326.4918 265.29562,326.4918 266.56226,325.71235 C 268.0237,324.93289 268.70572,323.76372 268.60832,322.20481 L 268.60832,315.48203 L 271.67742,315.48203 C 273.23628,315.57948 274.40546,314.94617 275.18495,313.58212 C 276.0618,312.12066 276.0618,310.7079 275.18495,309.34385 C 274.40546,308.07725 273.23628,307.44395 271.67742,307.44393 L 268.60832,307.44393 L 268.60832,279.52979 C 268.60829,278.26323 268.16985,277.2402 267.293,276.4607 C 266.31865,275.58386 265.2469,275.24285 264.07776,275.43767 M 260.57022,290.49084 L 260.57022,307.44393 L 245.95549,307.44393 L 260.57022,290.49084 M 281.87919,297.50591 L 281.87919,279.82209 C 281.87919,278.06837 282.60992,276.85047 284.0714,276.1684 C 284.55855,275.87616 284.99699,275.73001 285.38673,275.72996 L 312.57013,275.72996 C 314.129,275.73001 315.29818,276.41203 316.07767,277.77602 C 316.85708,279.14011 316.85708,280.50415 316.07767,281.86815 C 315.29818,283.32967 314.129,284.01169 312.57013,283.91421 L 289.91729,283.91421 L 289.91729,293.55993 L 298.39384,293.55993 C 303.94741,293.55997 308.28311,294.82658 311.40095,297.35976 C 314.90845,300.28274 316.66222,304.56972 316.66225,310.22073 C 316.66222,315.38461 314.90845,319.52545 311.40095,322.64325 C 308.47797,325.2739 304.97044,326.58923 300.87834,326.58923 L 292.98639,326.58923 C 290.25829,326.58923 287.87122,325.90721 285.82517,324.54317 C 283.19451,322.7894 281.87919,320.35362 281.87919,317.2358 C 281.87919,315.57948 282.56121,314.36158 283.92525,313.58212 C 285.28929,312.70525 286.65333,312.70525 288.01738,313.58212 C 289.28398,314.36158 289.91728,315.57948 289.91729,317.2358 C 289.91728,317.43067 290.06343,317.62554 290.35574,317.82039 C 291.03774,318.21012 291.91463,318.40499 292.98639,318.40498 L 300.87834,318.40498 C 302.92438,318.40499 304.62943,317.77168 305.9935,316.50506 C 307.64981,315.0436 308.47797,312.94883 308.478,310.22073 C 308.47797,307.10294 307.69852,304.86202 306.13965,303.49795 C 304.58072,302.3288 301.99878,301.74421 298.39384,301.74418 L 285.97132,301.74418 C 284.21754,301.74421 282.99965,300.96476 282.31763,299.40583 C 282.02533,298.82127 281.87919,298.18796 281.87919,297.50591 M 340.94896,297.06747 C 338.02599,297.0675 334.85947,297.65209 331.44938,298.82124 L 331.44938,290.63699 C 331.44937,288.59096 332.18011,286.98334 333.64159,285.81413 C 335.29791,284.64499 337.39269,284.0604 339.92593,284.06036 C 342.36169,284.0604 344.35904,284.64499 345.91797,285.81413 C 347.47685,286.98334 348.2563,288.59096 348.25633,290.63699 C 348.2563,292.19593 348.93832,293.3651 350.30239,294.14452 C 351.6664,295.02144 353.03044,295.02144 354.39451,294.14452 C 355.75852,293.3651 356.44054,292.19593 356.44058,290.63699 C 356.44054,286.15518 354.58934,282.35535 350.88698,279.2375 C 347.86657,276.99662 344.21289,275.87616 339.92593,275.87611 C 335.54149,275.87616 331.8391,276.99662 328.81873,279.2375 C 325.60348,281.77076 323.801,285.08343 323.41128,289.17551 L 323.41128,308.46696 C 323.31385,308.46698 323.31385,308.56441 323.41128,308.75926 L 323.41128,310.22073 C 323.41128,315.28718 324.87275,319.3793 327.7957,322.4971 C 330.52377,325.22519 333.93387,326.58923 338.02601,326.58923 L 341.53355,326.58923 C 344.45647,326.4918 346.89226,325.90721 348.84091,324.83546 C 351.86126,323.27656 354.00475,320.79206 355.2714,317.38195 C 356.05081,315.62819 356.44054,313.77699 356.44058,311.82835 C 356.44054,307.05422 354.63806,303.20568 351.03312,300.28271 C 350.35107,299.69815 349.62034,299.21099 348.84091,298.82124 C 346.30767,297.65209 343.87188,297.0675 341.53355,297.06747 L 341.24125,297.06747 L 340.94896,297.06747 M 331.44938,310.22073 L 331.44938,308.46696 C 331.44937,308.07725 331.64423,307.78496 332.03397,307.59008 C 333.49543,306.51835 336.07737,305.78761 339.77978,305.39787 C 339.97462,305.30046 340.46178,305.25174 341.24125,305.25172 L 341.53355,305.25172 L 341.6797,305.25172 C 342.84885,305.25174 343.96931,305.54404 345.04108,306.1286 C 346.50253,306.90808 347.37941,307.78496 347.67174,308.75926 C 348.06143,309.53873 348.2563,310.56176 348.25633,311.82835 C 348.2563,314.75131 347.18455,316.65122 345.04108,317.5281 C 344.06674,318.01526 342.89757,318.30756 341.53355,318.40498 L 338.02601,318.40498 C 336.27223,318.40499 334.81076,317.8204 333.64159,316.65121 C 332.18011,315.28718 331.44937,313.14369 331.44938,310.22073 M 365.7118,276.60684 L 398.1565,276.60684 C 399.8128,276.60689 401.07941,277.33763 401.95633,278.79905 C 402.63831,280.35801 402.49216,281.77076 401.51789,283.03733 L 369.51163,325.71235 C 368.43987,327.17382 367.02711,327.70969 365.27335,327.31997 C 364.59133,327.1251 364.05546,326.88152 363.66573,326.58923 C 362.20426,325.51748 361.7171,324.10473 362.20426,322.35096 C 362.39912,321.8638 362.59398,321.32793 362.78885,320.74334 L 389.97225,284.7911 L 366.15024,284.7911 C 364.39647,284.79114 363.12986,284.10912 362.35041,282.74503 C 362.05811,282.06306 361.91196,281.42975 361.91197,280.84512 C 361.81453,279.18883 362.49655,277.92222 363.95803,277.04529 C 364.54261,276.75304 365.1272,276.60689 365.7118,276.60684 M 424.45503,275.43767 C 421.14234,275.43772 418.02453,276.02231 415.1016,277.19143 C 411.69148,278.75039 409.20698,281.18617 407.64808,284.4988 C 406.7712,286.35004 406.33276,288.34738 406.33276,290.49084 L 406.33276,290.49084 C 406.23532,294.87529 407.84294,298.52897 411.15562,301.45189 C 410.08387,302.23137 409.35313,302.81596 408.96341,303.20566 C 407.01478,305.64147 406.04046,308.5157 406.04046,311.82835 L 406.04046,311.9745 C 405.94303,315.38461 406.81991,318.30756 408.67112,320.74334 C 410.32744,322.69197 412.47094,324.15344 415.1016,325.12776 C 417.6348,326.10207 420.75261,326.58923 424.45503,326.58923 C 427.96254,326.58923 431.08034,326.05336 433.80846,324.98161 C 436.34164,324.0073 438.43642,322.54582 440.09279,320.59719 C 441.94395,318.16141 442.86955,315.28718 442.86959,311.9745 C 442.86955,308.46698 441.94395,305.54404 440.09279,303.20566 C 439.6056,302.62109 438.82614,301.98779 437.75443,301.30574 C 440.96964,298.28539 442.57726,294.68043 442.5773,290.49084 C 442.57726,285.71674 440.62863,281.81948 436.7314,278.79905 C 433.71099,276.55818 429.61887,275.43772 424.45503,275.43767 M 424.45503,283.62192 C 426.79336,283.62196 428.83942,283.96297 430.59321,284.64495 C 432.34695,285.42444 433.4187,286.35004 433.80846,287.42175 C 434.29558,288.20124 434.53916,289.22427 434.53919,290.49084 C 434.53916,293.02409 433.71099,294.77786 432.05469,295.75214 C 430.39832,296.72649 428.35226,297.26236 425.9165,297.35976 L 424.45503,297.35976 L 423.1397,297.35976 C 421.09362,297.35979 419.43729,297.0675 418.17069,296.48288 C 416.51434,295.80089 415.4426,294.92401 414.95545,293.85223 C 414.66314,293.07281 414.517,292.00106 414.51701,290.63699 L 414.51701,290.49084 C 414.517,288.05509 415.29645,286.35004 416.85537,285.37568 C 418.99884,284.20655 421.53206,283.62196 424.45503,283.62192 M 434.68534,311.9745 C 434.68531,316.2615 431.27521,318.40499 424.45503,318.40498 C 419.7783,318.40499 416.7092,317.43067 415.24775,315.48203 C 414.56571,314.70259 414.2247,313.53342 414.22471,311.9745 L 414.22471,311.9745 C 414.2247,308.07725 417.24508,305.93376 423.28585,305.54401 L 424.45503,305.54401 L 425.9165,305.54401 C 429.7163,305.7389 432.29824,306.71321 433.66231,308.46696 C 434.3443,309.24643 434.68531,310.41561 434.68534,311.9745 M 481.1385,313.14368 L 481.1385,292.39076 C 481.13846,287.12949 479.67699,282.98865 476.75408,279.96823 C 474.02597,277.2402 470.61587,275.87616 466.52377,275.87611 L 463.01623,275.87611 C 456.00115,276.16845 451.42187,279.23754 449.27838,285.08339 C 448.59636,286.73977 448.25535,288.59096 448.25535,290.63699 C 448.25535,295.5086 450.00911,299.30842 453.51665,302.03648 C 454.2961,302.62109 455.07555,303.10825 455.85501,303.49795 C 458.19336,304.76458 460.58043,305.34917 463.01623,305.25172 L 463.74697,305.25172 C 467.35191,304.86202 469.7877,304.56972 471.05433,304.37484 C 471.24917,304.27743 471.88248,303.98513 472.95425,303.49795 L 472.95425,311.82835 C 472.95422,313.87443 472.2722,315.48204 470.90819,316.65121 C 469.25183,317.8204 467.20577,318.40499 464.77,318.40498 C 462.23676,318.40499 460.1907,317.8204 458.63181,316.65121 C 457.36519,315.48204 456.00115,315.18975 454.53969,315.77433 C 452.98077,316.35893 452.10389,317.5281 451.90903,319.28186 C 451.71417,320.84077 452.29875,322.10738 453.6628,323.08169 C 456.7806,325.42005 460.483,326.58923 464.77,326.58923 C 469.05696,326.58923 472.71064,325.42005 475.73105,323.08169 C 479.04369,320.54848 480.84617,317.23581 481.1385,313.14368 M 463.30853,297.06747 L 462.87008,297.06747 C 461.70089,297.0675 460.58043,296.77521 459.50869,296.19059 C 458.14464,295.60603 457.26776,294.72914 456.87804,293.55993 C 456.48831,292.87795 456.29344,291.90363 456.29345,290.63699 C 456.29344,288.00637 457.07289,286.25261 458.63181,285.37568 C 459.99584,284.49884 461.45731,284.0604 463.01623,284.06036 L 466.52377,284.06036 C 468.37494,284.0604 469.83642,284.59627 470.90819,285.66798 C 472.2722,287.12949 472.95422,289.37042 472.95425,292.39076 L 472.95425,294.14452 C 472.95422,294.33942 472.75936,294.583 472.36966,294.87526 C 471.10302,295.94704 468.61852,296.67777 464.91615,297.06747 C 464.62383,297.0675 464.08796,297.0675 463.30853,297.06747 M 507.68936,275.72996 C 503.59722,275.73001 499.94354,276.9479 496.72831,279.38364 C 490.97984,283.67068 488.10562,290.92932 488.10562,301.1596 C 487.91075,311.29249 490.5414,318.50242 495.99757,322.7894 C 499.11537,325.32262 503.01263,326.58923 507.68936,326.58923 C 511.78146,326.58923 515.38642,325.42005 518.50426,323.08169 C 524.35012,318.79471 527.27306,311.53607 527.2731,301.30574 C 527.27306,291.36776 524.64241,284.20655 519.38115,279.82209 L 518.50426,279.2375 C 515.38642,276.89919 511.78146,275.73001 507.68936,275.72996 M 507.68936,318.40498 C 499.89482,318.40499 496.09499,312.70525 496.28987,301.30574 C 496.28986,293.70611 498.04362,288.59096 501.55117,285.96027 C 503.30492,284.59627 505.35098,283.91425 507.68936,283.91421 C 510.02769,283.91425 512.02504,284.54756 513.6814,285.81413 C 517.28634,288.44482 519.08882,293.60868 519.08885,301.30574 C 519.08882,308.80799 517.28634,313.92314 513.6814,316.65121 C 512.02504,317.8204 510.02769,318.40499 507.68936,318.40498 M 140.2042,417.93131 C 138.64529,417.73644 137.57354,416.85956 136.98896,415.30066 C 136.89152,414.91093 136.84281,414.47249 136.84281,413.98533 L 136.84281,413.54689 C 136.84281,411.98799 137.47611,410.81881 138.74273,410.03935 C 140.10676,409.25991 141.42209,409.25991 142.6887,410.03935 C 143.9553,410.81881 144.58861,411.98799 144.58862,413.54689 L 144.58862,413.98533 C 144.58861,415.25194 144.15017,416.27497 143.27329,417.05442 C 142.3964,417.73644 141.37337,418.02874 140.2042,417.93131 M 155.93787,402.43969 C 157.00961,402.43971 157.98393,402.82943 158.86082,403.60887 C 159.64026,404.48577 160.02999,405.5088 160.03,406.67796 L 160.03,413.83918 C 160.02999,415.39809 159.34797,416.56727 157.98394,417.34672 C 156.61989,418.12617 155.20713,418.12617 153.74566,417.34672 C 152.38162,416.56727 151.6996,415.39809 151.6996,413.83918 L 151.6996,406.67796 C 151.6996,405.5088 152.13804,404.48577 153.01493,403.60887 C 153.69694,402.82943 154.67126,402.43971 155.93787,402.43969 M 174.24054,394.25544 C 172.68163,394.0606 171.60988,393.18372 171.0253,391.62479 C 170.92786,391.23509 170.87915,390.79665 170.87915,390.30946 L 170.87915,389.87102 C 170.87915,388.31215 171.51245,387.14297 172.77907,386.36348 C 174.1431,385.58406 175.45843,385.58406 176.72505,386.36348 C 177.99164,387.14297 178.62495,388.31215 178.62496,389.87102 L 178.62496,390.30946 C 178.62495,391.47867 178.18651,392.45298 177.30964,393.23241 C 176.43274,394.10932 175.40971,394.45033 174.24054,394.25544 M 174.24054,410.77009 C 172.68163,410.67266 171.60988,409.8445 171.0253,408.28558 C 170.92786,407.89587 170.87915,407.40871 170.87915,406.82411 L 170.87915,406.23952 C 170.87915,404.77806 171.51245,403.70631 172.77907,403.02428 C 174.1431,402.24484 175.45843,402.24484 176.72505,403.02428 C 177.99164,403.70631 178.62495,404.77806 178.62496,406.23952 L 178.62496,406.82411 C 178.62495,407.9933 178.18651,408.96761 177.30964,409.74706 C 176.43274,410.62395 175.40971,410.96496 174.24054,410.77009 M 195.96511,402.43969 C 197.03685,402.43971 198.01116,402.82943 198.88806,403.60887 C 199.6675,404.38834 200.05722,405.36265 200.05724,406.53182 L 200.05724,413.69303 C 200.05722,415.34937 199.3752,416.56727 198.01117,417.34672 C 196.64712,418.02874 195.28308,418.02874 193.91905,417.34672 C 192.555,416.56727 191.87298,415.34937 191.87299,413.69303 L 191.87299,406.53182 C 191.87298,405.36265 192.26271,404.38834 193.04217,403.60887 C 193.82161,402.82943 194.79592,402.43971 195.96511,402.43969 M 195.23438,391.33249 C 193.67546,391.13766 192.60372,390.26077 192.01913,388.70184 C 191.82427,388.31215 191.72683,387.8737 191.72684,387.38652 L 191.72684,386.94807 C 191.72683,385.3892 192.36014,384.22002 193.62676,383.44054 C 194.99079,382.66112 196.30611,382.66112 197.57273,383.44054 C 198.83933,384.22002 199.47263,385.3892 199.47265,386.94807 L 199.47265,387.38652 C 199.47263,388.65316 199.03419,389.62747 198.15732,390.30946 C 197.37786,391.18637 196.40354,391.52738 195.23438,391.33249 M 219.59645,417.93131 C 218.03753,417.73644 216.96578,416.85956 216.38121,415.30066 C 216.28376,414.91093 216.23505,414.47249 216.23506,413.98533 L 216.23506,413.54689 C 216.23505,411.98799 216.86835,410.81881 218.13497,410.03935 C 219.499,409.25991 220.81433,409.25991 222.08095,410.03935 C 223.34754,410.81881 223.98085,411.98799 223.98087,413.54689 L 223.98087,413.98533 C 223.98085,415.15451 223.54241,416.12882 222.66554,416.90828 C 221.88607,417.68773 220.86304,418.02874 219.59645,417.93131 M 220.03489,403.90116 C 218.47597,403.80375 217.30679,403.07301 216.52735,401.70895 C 216.33248,401.02695 216.23505,400.44236 216.23506,399.95519 L 216.23506,373.06408 C 216.23505,371.60265 216.86835,370.48219 218.13497,369.70269 C 219.499,368.92329 220.81433,368.92329 222.08095,369.70269 C 223.34754,370.48219 223.98085,371.60265 223.98087,373.06408 L 223.98087,399.95519 C 223.98085,401.12438 223.63984,402.04998 222.95784,402.73199 C 222.17837,403.51145 221.20405,403.90118 220.03489,403.90116 M 248.73572,417.34672 C 247.1768,417.15186 246.15377,416.32369 245.66663,414.86221 C 245.47175,414.37506 245.37432,413.93662 245.37433,413.54689 L 245.37433,412.81615 C 245.37432,411.35468 246.00762,410.18551 247.27425,409.30861 C 248.63827,408.6266 250.00231,408.6266 251.36637,409.30861 C 252.53553,410.18551 253.12012,411.35468 253.12014,412.81615 L 253.12014,413.54689 C 253.12012,414.61864 252.68168,415.54424 251.80481,416.32369 C 250.92791,417.10314 249.90488,417.44415 248.73572,417.34672 M 250.48949,373.79482 C 248.54084,373.79486 247.56653,374.18459 247.56654,374.96399 C 247.56653,376.62037 246.88451,377.83826 245.52048,378.61768 C 244.15643,379.4946 242.79239,379.4946 241.42835,378.61768 C 240.06431,377.83826 239.38229,376.62037 239.38229,374.96399 C 239.38229,372.62568 240.55146,370.38476 242.88983,368.24122 C 242.98725,368.0464 243.18211,367.80282 243.47442,367.51048 C 245.42304,366.24392 247.76139,365.61062 250.48949,365.61056 L 258.81988,365.61056 C 261.93767,365.51319 264.66575,366.39007 267.00413,368.24122 C 269.53732,370.1899 271.09622,373.21027 271.68085,377.30235 C 271.77824,377.69212 271.82696,378.08184 271.827,378.47153 C 271.82696,383.14828 269.7809,386.65581 265.68881,388.99414 C 263.05813,390.6505 260.1839,391.47867 257.06612,391.47864 C 256.38407,391.5761 255.75077,391.72225 255.1662,391.91708 C 254.58159,392.30684 254.2893,392.64785 254.28932,392.94011 C 254.09443,393.23243 253.997,393.76831 253.99702,394.54774 L 253.99702,398.05527 C 253.997,399.61419 253.31498,400.83209 251.95096,401.70895 C 250.5869,402.48842 249.17415,402.48842 247.71269,401.70895 C 246.44607,400.83209 245.81276,399.61419 245.81277,398.05527 L 245.81277,394.54774 C 245.81276,390.94279 247.1768,388.01985 249.9049,385.7789 C 250.39204,385.29177 250.97663,384.90204 251.65867,384.60972 C 253.50985,383.63544 255.31233,383.19699 257.06612,383.29439 C 258.72243,383.29443 260.23262,382.9047 261.59668,382.12521 C 262.9607,381.3458 263.64272,380.1279 263.64275,378.47153 C 263.64272,376.62037 263.10684,375.35376 262.03513,374.6717 C 261.15821,374.08715 260.08647,373.79486 258.81988,373.79482 L 250.48949,373.79482 M 305.2422,363.5645 C 306.99594,363.36969 308.35998,364.14915 309.33433,365.90286 C 310.11375,367.46181 309.87017,368.972 308.60359,370.43343 L 289.89673,390.7479 L 308.60359,411.06238 C 309.87017,412.329 310.11375,413.79047 309.33433,415.4468 C 309.13943,415.93396 308.79842,416.3724 308.3113,416.76213 C 307.04466,418.02874 305.53447,418.32103 303.78073,417.63901 C 303.39098,417.34672 303.00125,417.00571 302.61155,416.61598 L 281.27404,393.5247 C 280.00743,392.16069 279.71514,390.6505 280.39716,388.99414 C 280.59202,388.60444 280.88431,388.26343 281.27404,387.97111 L 302.61155,365.02598 C 303.29355,364.05171 304.17043,363.56456 305.2422,363.5645 M 325.52586,363.8568 C 323.77208,363.66199 322.40804,364.44144 321.43373,366.19515 C 320.65428,367.75411 320.89786,369.2643 322.16447,370.72572 L 341.01747,391.0402 L 322.16447,411.35468 C 320.89786,412.62129 320.65428,414.13148 321.43373,415.88524 C 321.62859,416.3724 321.9696,416.81085 322.45676,417.20057 C 323.72337,418.46718 325.23356,418.71076 326.98733,417.93131 C 327.47448,417.73644 327.91292,417.39543 328.30266,416.90828 L 349.49402,393.817 C 350.7606,392.45298 351.05289,390.99151 350.3709,389.43258 C 350.17601,388.94545 349.88371,388.55572 349.49402,388.2634 L 328.30266,365.31827 C 327.42576,364.34401 326.50016,363.85685 325.52586,363.8568 M 375.62014,367.07204 C 373.86635,366.87723 372.55102,367.60796 371.67416,369.26425 C 370.89469,370.8232 370.99212,372.33339 371.96645,373.79482 L 404.11886,416.46983 C 405.09313,417.83388 406.45717,418.32103 408.21099,417.93131 C 408.79552,417.83388 409.28268,417.5903 409.67246,417.20057 C 411.13388,416.12882 411.66975,414.71607 411.28008,412.9623 C 411.1826,412.37771 410.93902,411.89056 410.54935,411.50082 L 378.68923,368.82581 C 377.81232,367.75411 376.78929,367.16952 375.62014,367.07204 M 480.11548,366.77974 C 481.77176,366.68236 483.03837,367.4131 483.91531,368.97195 C 484.79214,370.53091 484.69471,371.99238 483.62302,373.35637 L 451.61675,416.17754 C 450.54498,417.54158 449.13223,418.02874 447.37848,417.63901 C 446.79387,417.54158 446.30671,417.298 445.91701,416.90828 C 444.35809,415.83653 443.7735,414.42377 444.16324,412.67 C 444.35809,412.18285 444.65038,411.69569 445.04012,411.20853 L 477.04639,368.53351 C 477.82579,367.46181 478.84882,366.87723 480.11548,366.77974 M 516.50614,366.04901 C 514.84979,366.24392 513.72933,367.16952 513.14475,368.82581 C 512.94988,369.21558 512.85245,369.65402 512.85246,370.14113 L 512.85246,377.74079 L 506.42198,377.74079 C 504.76564,377.74083 503.54774,378.42285 502.76829,379.78686 C 501.98884,381.15093 501.98884,382.51497 502.76829,383.87898 C 503.54774,385.34049 504.76564,385.97379 506.42198,385.7789 L 512.85246,385.7789 L 512.85246,399.0783 L 506.42198,399.0783 C 504.76564,399.07832 503.54774,399.76034 502.76829,401.12436 C 501.98884,402.48842 501.98884,403.85246 502.76829,405.21649 C 503.54774,406.58054 504.76564,407.26256 506.42198,407.26255 L 512.85246,407.26255 L 512.85246,413.83918 C 512.85245,415.39809 513.58318,416.61598 515.04467,417.49286 C 516.31126,418.17489 517.62659,418.17489 518.99065,417.49286 C 520.4521,416.61598 521.18284,415.39809 521.18286,413.83918 L 521.18286,407.26255 L 534.33611,407.26255 L 534.33611,413.83918 C 534.23865,415.39809 534.92067,416.61598 536.38218,417.49286 C 537.74618,418.17489 539.06151,418.17489 540.32816,417.49286 C 541.78959,416.61598 542.52032,415.39809 542.52036,413.83918 L 542.52036,407.26255 L 549.09699,407.26255 C 550.65585,407.26256 551.82503,406.58054 552.60453,405.21649 C 553.38393,403.85246 553.38393,402.48842 552.60453,401.12436 C 551.82503,399.76034 550.65585,399.07832 549.09699,399.0783 L 542.52036,399.0783 L 542.52036,385.7789 L 549.09699,385.7789 C 550.65585,385.97379 551.82503,385.34049 552.60453,383.87898 C 553.38393,382.51497 553.38393,381.15093 552.60453,379.78686 C 551.82503,378.42285 550.65585,377.74083 549.09699,377.74079 L 542.52036,377.74079 L 542.52036,370.14113 C 542.52032,368.67971 541.78959,367.51053 540.32816,366.6336 C 539.06151,365.75676 537.74618,365.75676 536.38218,366.6336 C 534.92067,367.51053 534.23865,368.67971 534.33611,370.14113 L 534.33611,377.74079 L 521.18286,377.74079 L 521.18286,370.14113 C 521.18284,368.87457 520.74439,367.85154 519.86753,367.07204 C 518.8932,366.29264 517.77273,365.95163 516.50614,366.04901 M 521.18286,385.7789 L 534.33611,385.7789 L 534.33611,399.0783 L 521.18286,399.0783 L 521.18286,385.7789"
       id="text7709"
       style="font-size:45.67103958px;font-style:normal;font-variant:normal;font-weight:normal;font-stretch:normal;text-align:start;line-height:125%;writing-mode:lr-tb;text-anchor:start;fill:#000000;fill-opacity:1;stroke:none;stroke-width:1px;stroke-linecap:butt;stroke-linejoin:miter;stroke-opacity:1;font-family:Ubuntu-Title;-inkscape-font-specification:Ubuntu-Title" />
  </g>
</svg>
